# xmcd
#
# Track frame offsets:
#	150
#	20477
#	30824
#	44495
#	56432
#	66981
#	79059
#	95357
#	112940
#	129013
#	151066
#	167506
#	184383
#	199150
#	211817
#	234394
#
# Disc length: 3375 seconds
#
# Revision: 0
# Processed by: cddbd v1.5.2PL0 Copyright (c) Steve Scherf et al.
# Submitted via: VUPlayer 2.49
#
DISCID=c10d2d10
DTITLE=Various Artist - These Are My Blues - A Tribute To Big Joe Williams
DYEAR=2010
DGENRE=Blues
TTITLE0=The Streamliners - Greystone Blues
TTITLE1=Snooks La Vie - Brother James
TTITLE2=Mississippi Gabe Carter - Baby Please Don't Go
TTITLE3=Kirk Special - Sloppy Drunk Blues
TTITLE4=Billy Bob and The BBQ Boys - I Got Wild
TTITLE5=Sweet Baby James (aka James Meston) - Army Man In Vietnam
TTITLE6=The Yearlings - Juanita
TTITLE7=Cal Williams Jr. - Highway 49
TTITLE8=C.W. Ayon - Throw A Boogie Woogie
TTITLE9=Steve Salvi - Gail Page - Mean Stepfather
TTITLE10=Brendan Gallagher - Baby Please Don't Go
TTITLE11=Lucky Oceans - Desert Blues
TTITLE12=Jack Chernos - Providence Help The Poor People
TTITLE13=Justin J. Garner - Vitamin A Blues
TTITLE14=Tara Carragher - I Got A Bad Mind
TTITLE15=Brenton Manser - Thinking About What They Did To Me
EXTD=
EXTT0=
EXTT1=
EXTT2=
EXTT3=
EXTT4=
EXTT5=
EXTT6=
EXTT7=
EXTT8=
EXTT9=
EXTT10=
EXTT11=
EXTT12=
EXTT13=
EXTT14=
EXTT15=
PLAYORDER=
